<svg width="33" height="36" viewBox="0 0 33 36" fill="none" xmlns="http://www.w3.org/2000/svg">
<path d="M7.3672 17.3182C7.3672 17.0195 7.47472 16.7331 7.66609 16.5219C7.85747 16.3107 8.11703 16.192 8.38768 16.192L22.2559 16.192L20.9293 14.7392C20.7371 14.5272 20.6292 14.2395 20.6292 13.9396C20.6292 13.6397 20.7371 13.3521 20.9293 13.14C21.1215 12.928 21.3821 12.8088 21.6538 12.8088C21.9256 12.8088 22.1862 12.928 22.3784 13.14L25.4398 16.5186C25.5814 16.677 25.6773 16.8781 25.7155 17.0966C25.7536 17.315 25.7322 17.5411 25.6541 17.7462C25.5775 17.9518 25.4475 18.1279 25.2805 18.2521C25.1134 18.3764 24.9167 18.4433 24.7153 18.4444L8.38768 18.4444C8.11703 18.4444 7.85747 18.3257 7.66609 18.1145C7.47472 17.9033 7.3672 17.6169 7.3672 17.3182Z" fill="white"/>
<path d="M20.6337 20.6969C20.6329 20.5487 20.6587 20.4017 20.7094 20.2645C20.7602 20.1273 20.835 20.0025 20.9296 19.8973L23.991 16.5187C24.1832 16.3066 24.4438 16.1875 24.7156 16.1875C24.8501 16.1875 24.9834 16.2167 25.1077 16.2736C25.232 16.3304 25.345 16.4137 25.4401 16.5187C25.5353 16.6237 25.6107 16.7484 25.6622 16.8856C25.7137 17.0228 25.7402 17.1698 25.7402 17.3183C25.7402 17.6182 25.6323 17.9058 25.4401 18.1179L22.3787 21.4965C22.2838 21.602 22.171 21.6858 22.0466 21.743C21.9223 21.8002 21.7889 21.8296 21.6542 21.8296C21.5194 21.8296 21.3861 21.8002 21.2617 21.743C21.1374 21.6858 21.0245 21.602 20.9296 21.4965C20.835 21.3912 20.7602 21.2664 20.7094 21.1292C20.6587 20.992 20.6329 20.8451 20.6337 20.6969Z" fill="white"/>
</svg>
