<svg width="29" height="29" viewBox="0 0 29 29" fill="none" xmlns="http://www.w3.org/2000/svg">
<path d="M3.08764 6.15967C3.08764 6.96518 3.74065 7.61816 4.54614 7.61816H24.0872C24.8927 7.61816 25.5457 6.96518 25.5457 6.15967C25.5457 5.35415 24.8927 4.70117 24.0872 4.70117H4.54614C3.74065 4.70117 3.08764 5.35415 3.08764 6.15967ZM7.81714 14.5425C7.81714 15.348 8.47015 16.001 9.27563 16.001H24.0872C24.8927 16.001 25.5457 15.348 25.5457 14.5425C25.5457 13.737 24.8927 13.084 24.0872 13.084H9.27563C8.47015 13.084 7.81714 13.737 7.81714 14.5425ZM15.6619 22.897C15.6619 23.7025 16.3148 24.3555 17.1204 24.3555H24.0872C24.8927 24.3555 25.5457 23.7025 25.5457 22.897C25.5457 22.0915 24.8927 21.4385 24.0872 21.4385H17.1204C16.3148 21.4385 15.6619 22.0915 15.6619 22.897Z" fill="white"/>
</svg>
